<svg width="166" height="61" viewBox="0 0 166 61" fill="none" xmlns="http://www.w3.org/2000/svg">
<path d="M35.245 25.3672H27.468C27.326 24.361 27.036 23.4673 26.598 22.6861C26.16 21.893 25.5978 21.2183 24.9112 20.6619C24.2247 20.1056 23.4316 19.6794 22.532 19.3835C21.6442 19.0876 20.6795 18.9396 19.6378 18.9396C17.7557 18.9396 16.1162 19.4072 14.7195 20.3423C13.3227 21.2656 12.2396 22.6151 11.4702 24.3906C10.7008 26.1544 10.3161 28.2969 10.3161 30.8182C10.3161 33.4105 10.7008 35.5885 11.4702 37.3523C12.2514 39.116 13.3404 40.4477 14.7372 41.3473C16.134 42.2469 17.7498 42.6967 19.5845 42.6967C20.6143 42.6967 21.5672 42.5606 22.4432 42.2884C23.331 42.0161 24.1181 41.6196 24.8047 41.0987C25.4912 40.5661 26.0594 39.9209 26.5092 39.1634C26.9709 38.4058 27.2905 37.5417 27.468 36.571L35.245 36.6065C35.0438 38.2756 34.5407 39.8854 33.7358 41.4361C32.9427 42.9749 31.8714 44.3539 30.522 45.5732C29.1844 46.7805 27.5864 47.7393 25.728 48.4496C23.8814 49.148 21.7921 49.4972 19.4602 49.4972C16.2169 49.4972 13.3168 48.7633 10.7599 47.2955C8.21496 45.8277 6.20265 43.7029 4.72301 40.9212C3.25521 38.1394 2.52131 34.7718 2.52131 30.8182C2.52131 26.8527 3.26705 23.4792 4.75852 20.6974C6.25 17.9157 8.27415 15.7969 10.831 14.3409C13.3878 12.8731 16.2642 12.1392 19.4602 12.1392C21.5672 12.1392 23.5204 12.4351 25.3196 13.027C27.1307 13.6188 28.7346 14.483 30.1314 15.6193C31.5282 16.7438 32.6645 18.1229 33.5405 19.7564C34.4283 21.3899 34.9964 23.2602 35.245 25.3672Z" fill="#FF6B00"/>
<path d="M58 42.56C58 43.2533 57.7467 43.84 57.24 44.32C56.7333 44.7733 56.1467 45 55.48 45C54.7333 45 54.1333 44.7733 53.68 44.32C53.2267 43.84 53 43.2533 53 42.56V19.44C53 18.7467 53.24 18.1733 53.72 17.72C54.2 17.24 54.8133 17 55.56 17C56.2 17 56.76 17.24 57.24 17.72C57.7467 18.1733 58 18.7467 58 19.44V42.56ZM73.4556 23.2C75.589 23.2 77.1623 23.72 78.1756 24.76C79.189 25.7733 79.8556 27.0933 80.1756 28.72L79.4956 28.36L79.8156 27.72C80.1356 27.1067 80.629 26.4533 81.2956 25.76C81.9623 25.04 82.7623 24.44 83.6956 23.96C84.6556 23.4533 85.7223 23.2 86.8956 23.2C88.8156 23.2 90.269 23.6133 91.2556 24.44C92.269 25.2667 92.9623 26.3733 93.3356 27.76C93.709 29.12 93.8956 30.64 93.8956 32.32V42.56C93.8956 43.2533 93.669 43.84 93.2156 44.32C92.7623 44.7733 92.189 45 91.4956 45C90.8023 45 90.229 44.7733 89.7756 44.32C89.3223 43.84 89.0956 43.2533 89.0956 42.56V32.32C89.0956 31.44 88.989 30.6533 88.7756 29.96C88.5623 29.24 88.1756 28.6667 87.6156 28.24C87.0556 27.8133 86.2556 27.6 85.2156 27.6C84.2023 27.6 83.3356 27.8133 82.6156 28.24C81.8956 28.6667 81.349 29.24 80.9756 29.96C80.629 30.6533 80.4556 31.44 80.4556 32.32V42.56C80.4556 43.2533 80.229 43.84 79.7756 44.32C79.3223 44.7733 78.749 45 78.0556 45C77.3623 45 76.789 44.7733 76.3356 44.32C75.8823 43.84 75.6556 43.2533 75.6556 42.56V32.32C75.6556 31.44 75.549 30.6533 75.3356 29.96C75.1223 29.24 74.7356 28.6667 74.1756 28.24C73.6156 27.8133 72.8156 27.6 71.7756 27.6C70.7623 27.6 69.8956 27.8133 69.1756 28.24C68.4556 28.6667 67.909 29.24 67.5356 29.96C67.189 30.6533 67.0156 31.44 67.0156 32.32V42.56C67.0156 43.2533 66.789 43.84 66.3356 44.32C65.8823 44.7733 65.309 45 64.6156 45C63.9223 45 63.349 44.7733 62.8956 44.32C62.4423 43.84 62.2156 43.2533 62.2156 42.56V26.04C62.2156 25.3467 62.4423 24.7733 62.8956 24.32C63.349 23.84 63.9223 23.6 64.6156 23.6C65.309 23.6 65.8823 23.84 66.3356 24.32C66.789 24.7733 67.0156 25.3467 67.0156 26.04V27.76L66.4156 27.64C66.6556 27.1867 66.989 26.7067 67.4156 26.2C67.8423 25.6667 68.3623 25.1733 68.9756 24.72C69.589 24.2667 70.269 23.9067 71.0156 23.64C71.7623 23.3467 72.5756 23.2 73.4556 23.2ZM115.211 23.2C115.904 23.2 116.477 23.4267 116.931 23.88C117.384 24.3333 117.611 24.92 117.611 25.64V42.56C117.611 43.2533 117.384 43.84 116.931 44.32C116.477 44.7733 115.904 45 115.211 45C114.517 45 113.944 44.7733 113.491 44.32C113.037 43.84 112.811 43.2533 112.811 42.56V40.6L113.691 40.96C113.691 41.3067 113.504 41.7333 113.131 42.24C112.757 42.72 112.251 43.2 111.611 43.68C110.971 44.16 110.211 44.5733 109.331 44.92C108.477 45.24 107.544 45.4 106.531 45.4C104.691 45.4 103.024 44.9333 101.531 44C100.037 43.04 98.8506 41.7333 97.9706 40.08C97.1173 38.4 96.6906 36.48 96.6906 34.32C96.6906 32.1333 97.1173 30.2133 97.9706 28.56C98.8506 26.88 100.024 25.5733 101.491 24.64C102.957 23.68 104.584 23.2 106.371 23.2C107.517 23.2 108.571 23.3733 109.531 23.72C110.491 24.0667 111.317 24.5067 112.011 25.04C112.731 25.5733 113.277 26.12 113.651 26.68C114.051 27.2133 114.251 27.6667 114.251 28.04L112.811 28.56V25.64C112.811 24.9467 113.037 24.3733 113.491 23.92C113.944 23.44 114.517 23.2 115.211 23.2ZM107.131 41C108.304 41 109.331 40.7067 110.211 40.12C111.091 39.5333 111.771 38.7333 112.251 37.72C112.757 36.7067 113.011 35.5733 113.011 34.32C113.011 33.04 112.757 31.8933 112.251 30.88C111.771 29.8667 111.091 29.0667 110.211 28.48C109.331 27.8933 108.304 27.6 107.131 27.6C105.984 27.6 104.971 27.8933 104.091 28.48C103.211 29.0667 102.517 29.8667 102.011 30.88C101.531 31.8933 101.291 33.04 101.291 34.32C101.291 35.5733 101.531 36.7067 102.011 37.72C102.517 38.7333 103.211 39.5333 104.091 40.12C104.971 40.7067 105.984 41 107.131 41ZM130.288 23.2C131.408 23.2 132.434 23.3733 133.368 23.72C134.301 24.0667 135.101 24.5067 135.768 25.04C136.461 25.5733 136.994 26.12 137.368 26.68C137.768 27.2133 137.968 27.6667 137.968 28.04L136.928 28.56V25.64C136.928 24.9467 137.154 24.3733 137.608 23.92C138.061 23.44 138.634 23.2 139.328 23.2C140.021 23.2 140.594 23.4267 141.048 23.88C141.501 24.3333 141.728 24.92 141.728 25.64V43.44C141.728 45.76 141.221 47.6133 140.208 49C139.221 50.4133 137.914 51.4267 136.288 52.04C134.661 52.68 132.914 53 131.048 53C130.514 53 129.821 52.9333 128.968 52.8C128.114 52.6667 127.301 52.5067 126.528 52.32C125.754 52.1333 125.168 51.96 124.768 51.8C123.968 51.4533 123.408 51.0133 123.088 50.48C122.794 49.9733 122.741 49.4267 122.928 48.84C123.168 48.0667 123.554 47.5333 124.088 47.24C124.621 46.9733 125.181 46.9467 125.768 47.16C126.034 47.24 126.474 47.4 127.088 47.64C127.701 47.88 128.368 48.0933 129.088 48.28C129.834 48.4933 130.488 48.6 131.048 48.6C133.048 48.6 134.528 48.2 135.488 47.4C136.448 46.6 136.928 45.4933 136.928 44.08V40.6L137.408 40.96C137.408 41.3067 137.221 41.7333 136.848 42.24C136.501 42.72 136.008 43.2 135.368 43.68C134.754 44.16 134.021 44.5733 133.168 44.92C132.314 45.24 131.408 45.4 130.448 45.4C128.554 45.4 126.848 44.9333 125.328 44C123.808 43.04 122.608 41.7333 121.728 40.08C120.848 38.4 120.408 36.48 120.408 34.32C120.408 32.1333 120.848 30.2133 121.728 28.56C122.608 26.88 123.794 25.5733 125.288 24.64C126.781 23.68 128.448 23.2 130.288 23.2ZM131.048 27.6C129.848 27.6 128.794 27.8933 127.888 28.48C126.981 29.0667 126.274 29.8667 125.768 30.88C125.261 31.8933 125.008 33.04 125.008 34.32C125.008 35.5733 125.261 36.7067 125.768 37.72C126.274 38.7333 126.981 39.5333 127.888 40.12C128.794 40.7067 129.848 41 131.048 41C132.274 41 133.341 40.7067 134.248 40.12C135.154 39.5333 135.861 38.7333 136.368 37.72C136.874 36.7067 137.128 35.5733 137.128 34.32C137.128 33.04 136.874 31.8933 136.368 30.88C135.861 29.8667 135.154 29.0667 134.248 28.48C133.341 27.8933 132.274 27.6 131.048 27.6ZM154.814 45.4C152.548 45.4 150.574 44.9333 148.894 44C147.241 43.04 145.961 41.7467 145.054 40.12C144.174 38.4933 143.734 36.6533 143.734 34.6C143.734 32.2 144.214 30.16 145.174 28.48C146.161 26.7733 147.441 25.4667 149.014 24.56C150.588 23.6533 152.254 23.2 154.014 23.2C155.374 23.2 156.654 23.48 157.854 24.04C159.081 24.6 160.161 25.3733 161.094 26.36C162.028 27.32 162.761 28.44 163.294 29.72C163.854 31 164.134 32.36 164.134 33.8C164.108 34.44 163.854 34.96 163.374 35.36C162.894 35.76 162.334 35.96 161.694 35.96H146.414L145.214 31.96H159.894L159.014 32.76V31.68C158.961 30.9067 158.681 30.2133 158.174 29.6C157.694 28.9867 157.081 28.5067 156.334 28.16C155.614 27.7867 154.841 27.6 154.014 27.6C153.214 27.6 152.468 27.7067 151.774 27.92C151.081 28.1333 150.481 28.4933 149.974 29C149.468 29.5067 149.068 30.1867 148.774 31.04C148.481 31.8933 148.334 32.9733 148.334 34.28C148.334 35.72 148.628 36.9467 149.214 37.96C149.828 38.9467 150.601 39.7067 151.534 40.24C152.494 40.7467 153.508 41 154.574 41C155.561 41 156.348 40.92 156.934 40.76C157.521 40.6 157.988 40.4133 158.334 40.2C158.708 39.96 159.041 39.76 159.334 39.6C159.814 39.36 160.268 39.24 160.694 39.24C161.281 39.24 161.761 39.44 162.134 39.84C162.534 40.24 162.734 40.7067 162.734 41.24C162.734 41.96 162.361 42.6133 161.614 43.2C160.921 43.7867 159.948 44.3067 158.694 44.76C157.441 45.1867 156.148 45.4 154.814 45.4Z" fill="black"/>
</svg>
